<?xml version="1.0" encoding="utf-8"?>
<!-- Generator: Adobe Illustrator 19.2.1, SVG Export Plug-In . SVG Version: 6.00 Build 0)  -->
<svg version="1.1" id="layer" xmlns="http://www.w3.org/2000/svg" xmlns:xlink="http://www.w3.org/1999/xlink" x="0px" y="0px"
	 viewBox="0 0 652 652" style="enable-background:new 0 0 652 652;" xml:space="preserve">
<style type="text/css">
	.st0{fill:#0055FF;}
	.st1{fill:white;}
</style>
<path class="st0" d="M269.8,308.8l-12.6,12.6l-12.6-12.6l12.6-12.6L269.8,308.8z"/>
<path class="st1" d="M82.4,309.2h-7l-0.8,0.8l-7.4,25.4l-8.1-25.8l-0.8-0.4h-7.7l-0.8,0.4L42.1,335l-7.4-25.4l-0.8-0.4h-7.4
	l-0.4,0.4l11.5,35.8l0.8,0.8h7l0.8-0.8l8.1-25.8l8.1,25.8l1.1,0.8h7.4l0.8-0.8l11.5-35.8L82.4,309.2z M162.7,309.2h-7.4l-0.8,0.8
	l-10,26.6l-10-26.6l-0.8-0.8h-7.4l-0.4,0.4l14.1,35.8l0.8,0.8h6.6l0.8-0.8l14.1-35.8v-0.4H162.7z M199.8,328.8l-0.8,0.8h-26.8
	c0.4,3,1.5,5.5,3.4,7.4s4.5,3,7.4,3c4.1,0,7-1.5,8.5-4.9l0.8-0.8h6.6l0.4,0.8c-1.1,4.1-3.8,7.4-6.6,9.2c-2.6,1.9-6.2,2.6-10,2.6
	c-5.5,0-10-1.9-13-5.5c-3.4-3.4-4.9-8.5-4.9-13.8s1.5-9.6,4.9-13.4c3.4-3.8,7.7-5.8,12.6-5.8c5.5,0,9.6,1.9,12.6,5.5
	c3,3.4,4.9,8.5,4.9,14.1V328.8L199.8,328.8z M182.3,315.4c-4.5,0-8.5,3-9.6,7.7h19.2C191,319.9,188.3,315.4,182.3,315.4z
	 M113.9,309.6l0.8-0.4h6.2l0.8,0.8v36.2l-0.8,0.8h-6.2l-0.8-0.8v-3.8c-0.8,1.1-2.3,2.3-3.4,3c-0.4,0-0.8,0.4-0.8,0.4s0,0-0.4,0
	c-1.9,1.1-4.1,1.5-6.6,1.5c-4.5,0-8.5-1.9-11.9-5.8c-3.4-4-4.9-8.5-4.9-13.8s1.5-10,4.9-13.8c3.4-3.8,7.4-5.8,11.9-5.8
	c2.3,0,4.5,0.4,6.6,1.5c0.4,0,0.8,0.4,1.1,0.4c1.5,0.8,2.6,1.9,3.8,3v-3.4H113.9z M103.5,339.9c3,0,5.5-1.1,7.4-3.4
	c1.1-1.5,2.3-3,2.6-5.5v-7.4c-0.4-2.3-1.5-3.8-2.6-5.5c-1.9-1.9-4.5-3-7.4-3c-3,0-4.9,1.1-7,3.4c-2.1,2.3-3,5.5-3,8.9
	c0,3.8,1.1,6.6,3,8.9C98.4,338.6,100.3,339.9,103.5,339.9z M224.9,324.6c0,0-3.8-0.8-7.4-1.5c-3-0.8-4.5-1.5-4.5-3.8s2.3-4.1,7-4.1
	s7.4,1.9,7.4,3.8l0.8,0.8h6.6l0.4-0.4c0-4.9-4.1-10.7-14.9-10.7c-11.1,0-14.5,7-14.5,11.1c0,3.4,1.1,8.1,10,10c0,0,4.1,0.8,7.4,1.5
	c3.8,0.8,5.5,2.3,5.5,4.1c0,1.9-1.9,4.5-7.4,4.5c-5.1,0-7.7-2.3-7.7-4.9l-0.8-0.8h-7.4l-0.4,0.8c0.8,6.2,4.9,11.9,16.2,11.9
	c12.3,0,14.5-7.7,14.5-11.5C235.7,329.9,232.6,326.5,224.9,324.6z M317.3,313.1h-12.6v33h-4.1v-33h-12.6v-3.8h30v3.8H317.3z
	 M327.7,319.9c7.4,0,12.3,4.5,12.3,12.6v1.5h-20.4c0.4,4.9,2.6,9.2,8.9,9.2c4.1,0,7.4-1.9,8.1-6.2h4.1c-1.1,3.8-4.1,9.6-12.3,9.6
	c-9.2,0-13-6.6-13-13.8C315,324.6,320.5,319.9,327.7,319.9z M335.4,331.1c0-4.1-2.6-7.4-8.1-7.4c-4.9,0-8.5,3.4-8.5,7.4H335.4z
	 M358.8,319.9c4.9,0,11.5,2.6,12.3,10.4h-4.5c-0.8-4.9-3.8-6.6-7.7-6.6c-6.2,0-8.9,4.5-8.9,10s2.6,10,8.9,10c3.8,0,7-1.5,7.7-6.6
	h4.1c-0.8,7.7-7,10.4-12.3,10.4c-8.5,0-13-6.2-13-13.4C345.4,325.8,350.5,319.9,358.8,319.9z M391.9,319.9c-5.8,0-9.6,3.4-10.4,8.1
	v-20h-4.1v38.5h4.1V335c0-7,3.8-11.1,9.2-11.1c4.5,0,6.6,1.9,6.6,7.7v15.5h4.1v-16.6C401.5,323.5,397.6,319.9,391.9,319.9z
	 M421.9,319.9c-5.8,0-9.6,3.4-10.4,8.1v-7.7h-4.1v25.8h4.1v-11.5c0-7,3.8-11.1,9.2-11.1c4.5,0,6.6,1.9,6.6,7.7v15.5h4.1v-16.2
	C431.9,323.5,427.9,319.9,421.9,319.9z M449.8,319.9c8.1,0,13.4,5.8,13.4,13.4c0,7.7-5.5,13.4-13.4,13.4c-8.5,0-13.8-5.8-13.8-13.4
	C436.4,325.8,441.9,319.9,449.8,319.9z M449.8,343.1c6.2,0,9.2-4.5,9.2-10c0-5.5-3.4-10-9.2-10c-6.2,0-9.6,4.5-9.6,10
	C440.8,338.8,443.8,343.1,449.8,343.1z M466.4,342.7h7.4v-31.7l-5.5,0.4v-3.8l6.2-0.4c2.3-0.4,3.4,1.1,3.4,3.4v31.5h7.4v3.8h-18.9
	V342.7L466.4,342.7z M501.8,319.9c8.1,0,13.4,5.8,13.4,13.4c0,7.7-5.5,13.4-13.4,13.4c-8.5,0-13.8-5.8-13.8-13.4
	C487.9,325.8,493.3,319.9,501.8,319.9z M501.8,343.1c6.2,0,9.2-4.5,9.2-10c0-5.5-3.4-10-9.2-10c-6.2,0-9.6,4.5-9.6,10
	C492.2,338.8,495.6,343.1,501.8,343.1z M547.8,320.3c-2.3,0-3.4,0.4-6.2,1.9c-2.3-1.5-5.8-2.6-8.9-2.6c-7.4,0-13.4,3.4-13.4,10.4
	c0,8.1,7.4,10.7,15.8,8.5c-3.8,1.1-8.1,3.8-12.3,4.5l0.8,3c6.6-1.9,17.7-4.5,17.7,1.1c0,4.1-5.5,4.5-20.4,4.5v3.8
	c17.3,0,24.5-0.8,24.5-7.7c0-5.8-5.8-6.6-11.9-5.8c7.7-2.6,12.3-6.6,12.3-11.9c0-2.3-0.8-4.1-1.9-5.5c1.1-0.8,1.9-1.1,3.4-1.1h2.3
	v-3.8h-1.9V320.3L547.8,320.3z M532.9,337.7c-5.5,0-9.2-1.9-9.2-7c0-4.9,3.8-7,9.2-7c5.5,0,8.9,1.9,8.9,7
	C542.2,335.8,538.2,337.7,532.9,337.7z M553.7,342.6h7.4v-19.2l-5.5,0.6v-3.6l6-0.6c2.5-0.2,3.4,1.1,3.4,3.2v19.6h7.4v3.6h-18.7
	V342.6z M558.6,312.4c0-2.1,1.7-3.6,3.8-3.6c2.1,0,3.8,1.7,3.8,3.6c0,2.1-1.7,3.6-3.8,3.6C560.3,316.2,558.6,314.5,558.6,312.4z
	 M586.8,319.7c7.4,0,12.1,4.7,12.1,12.6v1.7h-20.5c0.2,4.9,2.6,9,9,9c4.3,0,7.2-2.1,8.1-6h4.3c-0.9,4-4.1,9.6-12.4,9.6
	c-9.2,0-13.2-6.4-13.2-13.8C574.2,324.5,579.5,319.7,586.8,319.7z M594.8,330.9c0-4.1-2.8-7.5-7.9-7.5s-8.5,3.2-8.5,7.5H594.8z
	 M616.1,346.7c-8.5,0-11.9-4-11.9-10h4.3c0,4.5,2.6,6.6,7.5,6.6c4,0,5.8-0.9,5.8-3.6c0-3.4-3.6-4-7.7-5.3c-4.9-1.5-8.9-3-8.9-7.7
	c0-4.1,3.6-6.8,9.4-6.8c8.1,0,10.6,4.5,10.6,8.7H621c0-3.6-2.1-5.3-6.2-5.3c-2.8,0-5.1,0.8-5.1,3.2c0,2.5,1.7,3.2,6,4.7
	c5.1,1.7,10.6,2.8,10.6,8.5C626.2,343.3,623.8,346.7,616.1,346.7z"/>
</svg>
